<?xml version="1.0" encoding="UTF-8" standalone="no"?>
<!DOCTYPE svg PUBLIC "-//W3C//DTD SVG 1.1//EN" "http://www.w3.org/Graphics/SVG/1.1/DTD/svg11.dtd">
<svg width="100%" height="100%" viewBox="0 0 1024 1024" version="1.1" xmlns="http://www.w3.org/2000/svg" xmlns:xlink="http://www.w3.org/1999/xlink" xml:space="preserve" xmlns:serif="http://www.serif.com/" style="fill-rule:evenodd;clip-rule:evenodd;stroke-linejoin:round;stroke-miterlimit:2;">
    <g transform="matrix(0.932581,0,0,0.932581,146.23,69.9964)">
        <g transform="matrix(1.07229,0,0,1.0707,-156.801,-73.4299)">
            <path d="M1020.78,255.621L1020.78,766.862C1020.78,907.943 906.406,1022.48 765.535,1022.48L255.052,1022.48C114.18,1022.48 -0.19,907.943 -0.19,766.862L-0.19,255.621C-0.19,114.54 114.18,-0 255.052,-0L765.535,-0C906.406,-0 1020.78,114.54 1020.78,255.621Z" style="fill:rgb(13,15,40);"/>
        </g>
        <g transform="matrix(7.25286,0,0,7.25286,-115.812,-829.823)">
            <path d="M51.8,182.65C51.8,181.017 51.5,179.467 50.9,178L49.2,175.25L48.35,174.2L47.9,173.7C46.9,172.867 45.767,172.15 44.5,171.55C43,170.883 41.417,170.55 39.75,170.55C38.117,170.55 36.583,170.883 35.15,171.55C33.883,172.15 32.7,172.867 31.6,173.7L31.2,174.2L30.35,175.25C29.683,176.083 29.15,177 28.75,178C28.05,179.467 27.7,181.017 27.7,182.65C27.7,184.283 28.05,185.867 28.75,187.4C29.283,188.8 30.1,190.067 31.2,191.2C32.3,192.267 33.617,193.133 35.15,193.8C36.583,194.333 38.117,194.6 39.75,194.6C41.417,194.6 43,194.333 44.5,193.8C45.9,193.133 47.183,192.267 48.35,191.2C49.417,190.067 50.267,188.8 50.9,187.4C51.5,185.867 51.8,184.283 51.8,182.65M10.8,169.35L10.7,169.35C7.967,165.783 5.25,161.817 2.55,157.45C5.617,152.35 9.633,147.1 14.6,141.7C18.633,143.767 22.65,146.083 26.65,148.65L29.65,146.1L32.8,143.7L35.65,141.7C34.917,135.967 34.45,129.783 34.25,123.15C41.15,119.717 49.167,117 58.3,115C61.067,119.667 63.817,125 66.55,131L69.85,130.85L70.1,130.85L73.35,131C76.117,125 78.9,119.667 81.7,115C90.833,117 98.8,119.717 105.6,123.15C105.433,129.783 105,135.967 104.3,141.7L107.1,143.7L110.3,146.1L113.2,148.65C117.2,146.083 121.217,143.767 125.25,141.7C130.283,147.1 134.3,152.35 137.3,157.45C134.667,161.817 131.967,165.783 129.2,169.35L129.1,169.35L129.1,182.3C126,182.833 123.317,184.733 121.05,188C118.55,191.567 117.3,195.917 117.3,201.05L117.35,202.5L106.95,204.85L106.85,204.85C106.117,205.05 105.4,205.5 104.7,206.2L104.55,206.2C104.05,206.9 103.717,207.717 103.55,208.65L103,217.1L86.2,219.65L85.15,212.15C85.05,211.283 84.633,210.567 83.9,210L83.85,210C83.217,209.4 82.433,209.15 81.5,209.25L69.9,209.5L58.35,209.25C57.483,209.15 56.7,209.4 56,210L55.9,210C55.233,210.567 54.833,211.283 54.7,212.15L53.6,219.65L36.85,217.1L36.3,208.65C36.167,207.717 35.85,206.9 35.35,206.2L35.15,206.2C34.517,205.5 33.8,205.05 33,204.85L22.6,202.5L22.6,201.05C22.6,195.917 21.35,191.567 18.85,188L18.8,188C16.567,184.733 13.9,182.833 10.8,182.3L10.8,169.35M69.9,185.15C68.533,185.15 67.383,185.7 66.45,186.8C65.45,187.9 64.95,189.217 64.95,190.75L64.95,197.35C64.95,198.883 65.45,200.183 66.45,201.25C67.383,202.35 68.533,202.9 69.9,202.9C71.267,202.9 72.433,202.35 73.4,201.25C74.367,200.183 74.85,198.883 74.85,197.35L74.85,190.75C74.85,189.217 74.367,187.9 73.4,186.8C72.433,185.7 71.267,185.15 69.9,185.15M88.1,182.65C88.1,184.283 88.417,185.867 89.05,187.4C89.65,188.8 90.5,190.067 91.6,191.2C92.767,192.267 94.067,193.133 95.5,193.8C97,194.333 98.55,194.6 100.15,194.6C101.783,194.6 103.317,194.333 104.75,193.8C106.25,193.133 107.533,192.267 108.6,191.2C109.733,190.067 110.6,188.8 111.2,187.4C111.867,185.867 112.2,184.283 112.2,182.65C112.2,181.017 111.867,179.467 111.2,178L109.65,175.25L108.6,174.2L108.25,173.7C107.25,172.867 106.083,172.15 104.75,171.55C103.317,170.883 101.783,170.55 100.15,170.55C98.55,170.55 97,170.883 95.5,171.55C94.167,172.15 93,172.867 92,173.7L91.6,174.2L90.75,175.25C89.983,176.083 89.417,177 89.05,178C88.417,179.467 88.1,181.017 88.1,182.65" style="fill:url(#_Linear1);fill-rule:nonzero;"/>
        </g>
        <g transform="matrix(7.25286,0,0,7.25286,-115.812,-829.823)">
            <path d="M10.15,202.05C10.15,200.283 9.85,198.783 9.25,197.55C8.717,196.35 8.017,195.75 7.15,195.75C6.317,195.75 5.633,196.35 5.1,197.55C4.533,198.783 4.25,200.283 4.25,202.05C4.25,203.783 4.533,205.267 5.1,206.5C5.633,207.767 6.317,208.4 7.15,208.4C8.017,208.4 8.717,207.767 9.25,206.5C9.85,205.267 10.15,203.783 10.15,202.05M15.45,227.65C13.717,225.417 12.467,223.05 11.7,220.55L10.35,215.7L8.8,215.95C6.533,215.883 4.567,214.633 2.9,212.2L2.85,212.2C0.95,209.367 0,205.983 0,202.05C0,198.05 0.967,194.633 2.9,191.8L2.85,191.8C4.55,189.4 6.533,188.133 8.8,188L10.8,188.45C12.3,188.95 13.633,190.067 14.8,191.8C16.667,194.633 17.6,198.05 17.6,202.05L17.6,202.25C17.6,204.317 17.333,206.25 16.8,208.05L16.8,208.15L21.65,209.1L29.1,210.85L29.8,219.35C29.733,220.317 30.083,221.183 30.85,221.95C31.483,222.617 32.267,223.05 33.2,223.25L56.45,226.9C57.45,226.933 58.333,226.683 59.1,226.15C59.867,225.55 60.3,224.817 60.4,223.95L61.6,216.2L78.3,216.2L79.5,223.95C79.633,224.817 80.067,225.55 80.8,226.15C81.533,226.683 82.4,226.933 83.4,226.9L106.75,223.25C107.683,223.05 108.433,222.617 109,221.95L109.1,221.95C109.8,221.183 110.133,220.317 110.1,219.35L110.85,210.85L118.3,209.1L123.05,207.95C122.55,206.217 122.283,204.317 122.25,202.25L122.25,202.05C122.25,198.05 123.217,194.633 125.15,191.8L125.1,191.8C126.267,190.067 127.6,188.95 129.1,188.45C129.7,188.217 130.35,188.067 131.05,188C133.35,188.133 135.333,189.4 137,191.8C138.9,194.633 139.85,198.05 139.85,202.05C139.85,205.983 138.9,209.367 137,212.2C135.333,214.633 133.35,215.883 131.05,215.95L129.7,215.75L128.2,220.55C127.4,223.05 126.15,225.417 124.45,227.65C121.517,231.45 117.3,234.667 111.8,237.3C106.6,239.8 100.35,241.7 93.05,243C86.017,244.333 78.367,245 70.1,245L69.85,245C61.517,245 53.833,244.333 46.8,243C39.567,241.7 33.317,239.8 28.05,237.3C22.55,234.667 18.35,231.45 15.45,227.65M136.3,202.05C136.3,200.283 136,198.783 135.4,197.55C134.867,196.35 134.183,195.75 133.35,195.75C132.517,195.75 131.8,196.35 131.2,197.55C130.633,198.783 130.35,200.283 130.35,202.05C130.35,203.783 130.633,205.267 131.2,206.5C131.8,207.767 132.517,208.4 133.35,208.4C134.183,208.4 134.867,207.767 135.4,206.5C136,205.267 136.3,203.783 136.3,202.05" style="fill:rgb(28,119,219);fill-rule:nonzero;"/>
        </g>
    </g>
    <defs>
        <linearGradient id="_Linear1" x1="0" y1="0" x2="1" y2="0" gradientUnits="userSpaceOnUse" gradientTransform="matrix(5.22312e-15,85.3,-85.3,5.22312e-15,62.1546,138.5)"><stop offset="0" style="stop-color:rgb(71,157,252);stop-opacity:1"/><stop offset="1" style="stop-color:rgb(28,119,219);stop-opacity:1"/></linearGradient>
    </defs>
</svg>
